<svg width="14" height="22" viewBox="0 0 14 22" fill="none" xmlns="http://www.w3.org/2000/svg">
<path d="M12.8224 20.6247C12.4647 21.319 11.6583 21.6275 10.929 21.354C10.6485 21.2488 9.96121 20.5967 5.98501 16.6275C3.37629 14.0258 1.28651 11.8869 1.18132 11.7116C0.942884 11.3189 0.921846 10.6316 1.12521 10.2389C1.19534 10.1057 3.32019 7.91771 5.85878 5.38613C9.2389 1.99899 10.5363 0.743721 10.7396 0.659569C10.8939 0.596455 11.1954 0.540354 11.4128 0.547367C12.2544 0.547367 12.8785 1.15747 12.8995 1.99198C12.9136 2.74234 13.0398 2.58806 8.71295 6.92892L4.7087 10.9402L8.71996 14.9585C11.7845 18.016 12.7663 19.0469 12.8715 19.2853C13.0748 19.7341 13.0608 20.1689 12.8224 20.6247Z" fill="white"/>
</svg>
