<svg width="12" height="22" viewBox="0 0 12 22" fill="none" xmlns="http://www.w3.org/2000/svg">
<path d="M0.297299 20.4278C0.647612 21.1079 1.43753 21.4101 2.1519 21.1422C2.42665 21.0392 3.0998 20.4004 6.99445 16.5126C9.54968 13.9642 11.5966 11.8692 11.6996 11.6975C11.9332 11.3128 11.9538 10.6397 11.7546 10.255C11.6859 10.1245 9.60463 7.98143 7.11809 5.50176C3.80729 2.18409 2.53655 0.954565 2.33736 0.872137C2.18624 0.810318 1.89088 0.755367 1.67794 0.762236C0.853678 0.762236 0.242348 1.35983 0.221742 2.17723C0.208004 2.9122 0.0843639 2.76108 4.32246 7.01291L8.24459 10.9419L4.31559 14.8778C1.31389 17.8726 0.35225 18.8823 0.249217 19.1159C0.0500193 19.5555 0.0637569 19.9814 0.297299 20.4278Z" fill="white"/>
</svg>
