<svg width="228" height="18" viewBox="0 0 228 18" fill="none" xmlns="http://www.w3.org/2000/svg">
<g clip-path="url(#clip0_169_2364)">
<path d="M5.9994 0.380655L6.16036 0.875072L12.0932 16.8608H14.5308V16.6725L8.29895 0.380655H5.9994ZM5.9994 0.380655L-0.232422 16.6725V16.8608H2.20512L8.13797 0.875072L8.29895 0.380655H5.9994Z" fill="white"/>
</g>
<g clip-path="url(#clip1_169_2364)">
<path d="M17.7759 17.0288V0.548584H20.0754V17.0288H17.7759Z" fill="white"/>
</g>
<path d="M83.8182 0.61869L83.9792 1.11311L89.9121 17.0989H92.3496V16.9105L86.1178 0.61869H83.8182ZM83.8182 0.61869L77.5864 16.9105V17.0989H80.024L85.9568 1.11311L86.1178 0.61869H83.8182Z" fill="white"/>
<path d="M45.2974 17.0988V0.618652H47.5969V17.0988H45.2974Z" fill="white"/>
<g clip-path="url(#clip2_169_2364)">
<path d="M34.0336 17.0285L34.1945 16.5341L40.1274 0.54834H42.5649V0.736685L36.3331 17.0285H34.0336ZM34.0336 17.0285L27.8018 0.736685V0.54834H30.2393L36.1722 16.5341L36.3331 17.0285H34.0336Z" fill="white"/>
</g>
<g clip-path="url(#clip3_169_2364)">
<path d="M56.7683 17.3584C55.6645 17.3584 54.668 17.1544 53.7788 16.7463C52.8897 16.3382 52.1462 15.7653 51.5483 15.0276C50.9657 14.2899 50.5748 13.4267 50.3755 12.4379L52.4681 11.8964L52.721 11.9435C52.9203 12.5556 53.2116 13.1049 53.5949 13.5915C53.9935 14.0624 54.4687 14.439 55.0206 14.7216C55.5725 14.9884 56.1704 15.1218 56.8142 15.1218C57.4735 15.1218 58.0484 15.0119 58.5389 14.7922C59.0448 14.5724 59.4434 14.2742 59.7347 13.8975C60.026 13.5052 60.1716 13.0578 60.1716 12.5556C60.1716 11.8964 59.9876 11.3863 59.6197 11.0253C59.2518 10.6643 58.7152 10.3896 58.01 10.2013L55.0206 9.35372C53.7022 8.99273 52.6981 8.41201 52.0082 7.61153C51.3183 6.79537 50.9734 5.85365 50.9734 4.78636C50.9734 3.89173 51.1957 3.10695 51.6402 2.43205C52.1002 1.74145 52.7364 1.19996 53.5489 0.807573C54.3614 0.415187 55.2966 0.218994 56.3544 0.218994C57.3815 0.218994 58.3013 0.415187 59.1138 0.807573C59.9417 1.18426 60.6239 1.71791 61.1604 2.4085C61.7123 3.0991 62.0726 3.92312 62.2412 4.88054L60.2176 5.32786L59.9647 5.28077C59.7654 4.40182 59.3438 3.71122 58.6999 3.20898C58.056 2.70672 57.2665 2.45559 56.3314 2.45559C55.4422 2.45559 54.7293 2.67532 54.1928 3.1148C53.6562 3.53858 53.3879 4.09576 53.3879 4.78636C53.3879 5.36708 53.5795 5.8458 53.9628 6.22249C54.3614 6.59918 54.9286 6.89739 55.6645 7.11712L58.6539 7.94114C59.9263 8.28644 60.8998 8.84361 61.5744 9.61269C62.2642 10.3818 62.6091 11.3235 62.6091 12.4379C62.6091 13.4267 62.3639 14.2899 61.8733 15.0276C61.3827 15.7653 60.7005 16.3382 59.8267 16.7463C58.9528 17.1544 57.9334 17.3584 56.7683 17.3584Z" fill="white"/>
</g>
<g clip-path="url(#clip4_169_2364)">
<path d="M70.2374 17.0285V0.54834H72.537V17.0285H70.2374ZM65.3394 2.80849V0.54834H77.435V2.80849H65.3394Z" fill="white"/>
</g>
<g clip-path="url(#clip5_169_2364)">
<path d="M106.48 17.3584C105.376 17.3584 104.379 17.1544 103.49 16.7463C102.601 16.3382 101.858 15.7653 101.26 15.0276C100.677 14.2899 100.286 13.4267 100.087 12.4379L102.18 11.8964L102.432 11.9435C102.632 12.5556 102.923 13.1049 103.306 13.5915C103.705 14.0624 104.18 14.439 104.732 14.7216C105.284 14.9884 105.882 15.1218 106.526 15.1218C107.185 15.1218 107.76 15.0119 108.25 14.7922C108.756 14.5724 109.155 14.2742 109.446 13.8975C109.737 13.5052 109.883 13.0578 109.883 12.5556C109.883 11.8964 109.699 11.3863 109.331 11.0253C108.963 10.6643 108.427 10.3896 107.721 10.2013L104.732 9.35372C103.414 8.99273 102.409 8.41201 101.72 7.61153C101.03 6.79537 100.685 5.85365 100.685 4.78636C100.685 3.89173 100.907 3.10695 101.352 2.43205C101.812 1.74145 102.448 1.19996 103.26 0.807573C104.073 0.415187 105.008 0.218994 106.066 0.218994C107.093 0.218994 108.013 0.415187 108.825 0.807573C109.653 1.18426 110.335 1.71791 110.872 2.4085C111.424 3.0991 111.784 3.92312 111.953 4.88054L109.929 5.32786L109.676 5.28077C109.477 4.40182 109.055 3.71122 108.411 3.20898C107.767 2.70672 106.978 2.45559 106.043 2.45559C105.154 2.45559 104.441 2.67532 103.904 3.1148C103.368 3.53858 103.099 4.09576 103.099 4.78636C103.099 5.36708 103.291 5.8458 103.674 6.22249C104.073 6.59918 104.64 6.89739 105.376 7.11712L108.365 7.94114C109.638 8.28644 110.611 8.84361 111.286 9.61269C111.976 10.3818 112.321 11.3235 112.321 12.4379C112.321 13.4267 112.075 14.2899 111.585 15.0276C111.094 15.7653 110.412 16.3382 109.538 16.7463C108.664 17.1544 107.645 17.3584 106.48 17.3584Z" fill="#00A8A8"/>
</g>
<g clip-path="url(#clip6_169_2364)">
<path d="M122.795 17.3584C121.308 17.3584 119.982 17.0052 118.817 16.2989C117.652 15.577 116.74 14.5724 116.081 13.2854C115.437 11.9984 115.115 10.4995 115.115 8.7887C115.115 7.0779 115.437 5.57898 116.081 4.29197C116.74 3.00493 117.652 2.00827 118.817 1.30198C119.982 0.579988 121.308 0.218994 122.795 0.218994C124.298 0.218994 125.624 0.579988 126.774 1.30198C127.939 2.00827 128.843 3.00493 129.487 4.29197C130.146 5.57898 130.476 7.0779 130.476 8.7887C130.476 10.4995 130.146 11.9984 129.487 13.2854C128.843 14.5724 127.939 15.577 126.774 16.2989C125.624 17.0052 124.298 17.3584 122.795 17.3584ZM122.795 15.0983C123.822 15.0983 124.742 14.8393 125.555 14.3213C126.367 13.8034 127.003 13.0735 127.463 12.1318C127.923 11.1744 128.153 10.06 128.153 8.7887C128.153 7.50166 127.923 6.3873 127.463 5.44556C127.003 4.50384 126.367 3.77401 125.555 3.25605C124.742 2.73811 123.822 2.47913 122.795 2.47913C121.768 2.47913 120.848 2.73811 120.036 3.25605C119.239 3.77401 118.602 4.50384 118.127 5.44556C117.667 6.3873 117.437 7.50166 117.437 8.7887C117.437 10.06 117.667 11.1744 118.127 12.1318C118.602 13.0735 119.239 13.8034 120.036 14.3213C120.848 14.8393 121.768 15.0983 122.795 15.0983Z" fill="#00A8A8"/>
</g>
<g clip-path="url(#clip7_169_2364)">
<path d="M133.227 17.2663V0.786133H135.526V17.2663H133.227ZM134.399 17.2663V15.0062H143.46V17.2663H134.399Z" fill="#00A8A8"/>
</g>
<g clip-path="url(#clip8_169_2364)">
<path d="M152.263 17.3581C151.021 17.3581 149.948 17.107 149.043 16.6047C148.139 16.0868 147.441 15.357 146.951 14.4152C146.475 13.4578 146.238 12.3199 146.238 11.0015V0.54834H148.537V11.0486C148.537 12.3513 148.852 13.3558 149.48 14.0621C150.124 14.7527 151.052 15.098 152.263 15.098C153.474 15.098 154.394 14.7527 155.022 14.0621C155.666 13.3558 155.988 12.3513 155.988 11.0486V0.54834H158.31V11.0015C158.31 12.3199 158.065 13.4578 157.575 14.4152C157.084 15.357 156.387 16.0868 155.482 16.6047C154.578 17.107 153.504 17.3581 152.263 17.3581Z" fill="#00A8A8"/>
</g>
<g clip-path="url(#clip9_169_2364)">
<path d="M165.943 17.2663V0.786133H168.243V17.2663H165.943ZM161.045 3.04628V0.786133H173.141V3.04628H161.045Z" fill="#00A8A8"/>
</g>
<g clip-path="url(#clip10_169_2364)">
<path d="M175.969 17.2663V0.786133H178.268V17.2663H175.969Z" fill="#00A8A8"/>
</g>
<g clip-path="url(#clip11_169_2364)">
<path d="M188.767 17.3584C187.28 17.3584 185.954 17.0052 184.789 16.2989C183.624 15.577 182.711 14.5724 182.052 13.2854C181.408 11.9984 181.086 10.4995 181.086 8.7887C181.086 7.0779 181.408 5.57898 182.052 4.29197C182.711 3.00493 183.624 2.00827 184.789 1.30198C185.954 0.579988 187.28 0.218994 188.767 0.218994C190.269 0.218994 191.595 0.579988 192.745 1.30198C193.91 2.00827 194.815 3.00493 195.459 4.29197C196.118 5.57898 196.447 7.0779 196.447 8.7887C196.447 10.4995 196.118 11.9984 195.459 13.2854C194.815 14.5724 193.91 15.577 192.745 16.2989C191.595 17.0052 190.269 17.3584 188.767 17.3584ZM188.767 15.0983C189.794 15.0983 190.714 14.8393 191.526 14.3213C192.339 13.8034 192.975 13.0735 193.435 12.1318C193.895 11.1744 194.125 10.06 194.125 8.7887C194.125 7.50166 193.895 6.3873 193.435 5.44556C192.975 4.50384 192.339 3.77401 191.526 3.25605C190.714 2.73811 189.794 2.47913 188.767 2.47913C187.74 2.47913 186.82 2.73811 186.007 3.25605C185.21 3.77401 184.574 4.50384 184.099 5.44556C183.639 6.3873 183.409 7.50166 183.409 8.7887C183.409 10.06 183.639 11.1744 184.099 12.1318C184.574 13.0735 185.21 13.8034 186.007 14.3213C186.82 14.8393 187.74 15.0983 188.767 15.0983Z" fill="#00A8A8"/>
</g>
<g clip-path="url(#clip12_169_2364)">
<path d="M209.73 17.2663L199.198 1.4218V0.786133H201.498L212.053 16.6307V17.2663H209.73ZM199.198 17.2663V0.786133H201.498V17.2663H199.198ZM209.73 17.2663V0.786133H212.053V17.2663H209.73Z" fill="#00A8A8"/>
</g>
<g clip-path="url(#clip13_169_2364)">
<path d="M221.266 17.3584C220.162 17.3584 219.166 17.1544 218.276 16.7463C217.387 16.3382 216.644 15.7653 216.046 15.0276C215.463 14.2899 215.072 13.4267 214.873 12.4379L216.966 11.8964L217.219 11.9435C217.418 12.5556 217.709 13.1049 218.092 13.5915C218.491 14.0624 218.966 14.439 219.518 14.7216C220.07 14.9884 220.668 15.1218 221.312 15.1218C221.971 15.1218 222.546 15.0119 223.036 14.7922C223.542 14.5724 223.941 14.2742 224.232 13.8975C224.524 13.5052 224.669 13.0578 224.669 12.5556C224.669 11.8964 224.485 11.3863 224.117 11.0253C223.749 10.6643 223.213 10.3896 222.508 10.2013L219.518 9.35372C218.2 8.99273 217.196 8.41201 216.506 7.61153C215.816 6.79537 215.471 5.85365 215.471 4.78636C215.471 3.89173 215.693 3.10695 216.138 2.43205C216.598 1.74145 217.234 1.19996 218.046 0.807573C218.859 0.415187 219.794 0.218994 220.852 0.218994C221.879 0.218994 222.799 0.415187 223.611 0.807573C224.439 1.18426 225.121 1.71791 225.658 2.4085C226.21 3.0991 226.57 3.92312 226.739 4.88054L224.715 5.32786L224.462 5.28077C224.263 4.40182 223.841 3.71122 223.197 3.20898C222.554 2.70672 221.764 2.45559 220.829 2.45559C219.94 2.45559 219.227 2.67532 218.69 3.1148C218.154 3.53858 217.885 4.09576 217.885 4.78636C217.885 5.36708 218.077 5.8458 218.46 6.22249C218.859 6.59918 219.426 6.89739 220.162 7.11712L223.151 7.94114C224.424 8.28644 225.397 8.84361 226.072 9.61269C226.762 10.3818 227.107 11.3235 227.107 12.4379C227.107 13.4267 226.861 14.2899 226.371 15.0276C225.88 15.7653 225.198 16.3382 224.324 16.7463C223.45 17.1544 222.431 17.3584 221.266 17.3584Z" fill="#00A8A8"/>
</g>
<defs>
<clipPath id="clip0_169_2364">
<rect width="15.0992" height="16.6478" fill="white" transform="matrix(1 0 0 -1 0 17.0286)"/>
</clipPath>
<clipPath id="clip1_169_2364">
<rect width="2.55524" height="16.6478" fill="white" transform="translate(17.6543 0.380859)"/>
</clipPath>
<clipPath id="clip2_169_2364">
<rect width="15.0992" height="16.6478" fill="white" transform="translate(27.6431 0.380859)"/>
</clipPath>
<clipPath id="clip3_169_2364">
<rect width="12.5439" height="17.3613" fill="white" transform="translate(50.1758 0.143066)"/>
</clipPath>
<clipPath id="clip4_169_2364">
<rect width="12.3116" height="16.6478" fill="white" transform="translate(65.2749 0.380859)"/>
</clipPath>
<clipPath id="clip5_169_2364">
<rect width="12.5439" height="17.3613" fill="white" transform="translate(99.8867 0.143066)"/>
</clipPath>
<clipPath id="clip6_169_2364">
<rect width="15.5637" height="17.3613" fill="white" transform="translate(114.986 0.143066)"/>
</clipPath>
<clipPath id="clip7_169_2364">
<rect width="10.4533" height="16.6478" fill="white" transform="translate(133.105 0.618652)"/>
</clipPath>
<clipPath id="clip8_169_2364">
<rect width="12.3116" height="17.1234" fill="white" transform="translate(146.114 0.380859)"/>
</clipPath>
<clipPath id="clip9_169_2364">
<rect width="12.3116" height="16.6478" fill="white" transform="translate(160.98 0.618652)"/>
</clipPath>
<clipPath id="clip10_169_2364">
<rect width="2.55524" height="16.6478" fill="white" transform="translate(175.847 0.618652)"/>
</clipPath>
<clipPath id="clip11_169_2364">
<rect width="15.5637" height="17.3613" fill="white" transform="translate(180.958 0.143066)"/>
</clipPath>
<clipPath id="clip12_169_2364">
<rect width="13.0085" height="16.6478" fill="white" transform="translate(199.077 0.618652)"/>
</clipPath>
<clipPath id="clip13_169_2364">
<rect width="12.5439" height="17.3613" fill="white" transform="translate(214.641 0.143066)"/>
</clipPath>
</defs>
</svg>
