<svg width="35" height="44" viewBox="0 0 35 44" fill="none" xmlns="http://www.w3.org/2000/svg">
<path d="M12.8116 1.06194C11.9979 1.32688 11.3071 1.91353 10.9097 2.67997C10.7205 3.03953 10.6826 3.2477 10.6826 4.00467C10.6826 4.76163 10.7205 4.97926 10.9097 5.37667C11.0895 5.75516 12.7737 7.48673 19.2837 14.0061L27.4306 22.172L19.2837 30.3283C12.7737 36.8572 11.0895 38.5888 10.9097 38.9672C10.7205 39.3647 10.6826 39.5823 10.6826 40.3393C10.6826 41.0962 10.7205 41.3044 10.9097 41.664C11.2125 42.2411 11.7235 42.7616 12.2912 43.0643C12.7075 43.282 12.8778 43.3198 13.6632 43.3198C14.4202 43.3198 14.6378 43.282 15.0352 43.0927C15.4137 42.913 17.3534 41.0205 24.9799 33.394C34.0446 24.3388 34.4704 23.8941 34.6597 23.3736C34.7921 23.0141 34.8584 22.6072 34.8584 22.172C34.8584 21.7367 34.7921 21.3298 34.6597 20.9703C34.4704 20.4499 34.0446 20.0051 24.9799 10.9499C17.3345 3.30447 15.4137 1.43097 15.0352 1.25119C14.5337 1.01463 13.2942 0.901085 12.8116 1.06194Z" fill="white"/>
<path d="M2.21425 4.84625C1.4005 5.11119 0.709769 5.69784 0.31236 6.46428C0.123117 6.82384 0.0852684 7.032 0.0852684 7.78897C0.0852684 8.54594 0.123117 8.76357 0.31236 9.16098C0.49214 9.53947 1.84523 10.9399 6.79392 15.898L13.0484 22.1714L6.78446 28.4353C-0.274293 35.5036 0.00957136 35.1629 0.000109226 36.5539C-0.00935291 37.7934 0.596224 38.768 1.71276 39.3168C2.24263 39.5723 2.43188 39.6196 3.05638 39.6196C4.46624 39.6196 3.94582 40.0643 12.4901 31.5105C19.7097 24.2815 20.0882 23.8935 20.2775 23.3731C20.5424 22.6445 20.5424 21.6983 20.2775 20.9697C20.0882 20.4493 19.7192 20.0614 12.4901 12.8418C6.40597 6.7576 4.81633 5.21527 4.43785 5.03549C3.93636 4.79894 2.69682 4.68539 2.21425 4.84625Z" fill="white"/>
</svg>
